<?xml version="1.0" standalone="no"?>
<!DOCTYPE svg PUBLIC "-//W3C//DTD SVG 20010904//EN"
 "http://www.w3.org/TR/2001/REC-SVG-20010904/DTD/svg10.dtd">
<svg version="1.0" xmlns="http://www.w3.org/2000/svg"
 width="500.000000pt" height="500.000000pt" viewBox="0 0 500.000000 500.000000"
 preserveAspectRatio="xMidYMid meet">

<g transform="translate(0.000000,500.000000) scale(0.100000,-0.100000)"
fill="#000000" stroke="none">
<path d="M1376 2732 c-3 -5 8 -22 25 -38 17 -16 37 -41 45 -56 14 -27 13 -30
-26 -72 -37 -40 -52 -76 -31 -76 19 0 101 100 101 123 0 14 -18 47 -41 76 -39
48 -61 62 -73 43z"/>
<path d="M976 2691 c-13 -20 4 -31 49 -31 24 0 51 -3 60 -6 9 -4 63 -78 120
-165 114 -174 134 -192 212 -187 67 4 65 24 -2 31 -31 3 -63 11 -71 18 -8 6
-59 80 -114 163 -55 83 -110 157 -121 165 -29 18 -124 27 -133 12z"/>
<path d="M1852 2614 c-23 -16 -28 -39 -13 -62 4 -7 30 -17 57 -21 l49 -9 -58
-1 c-50 -1 -58 -4 -55 -18 2 -14 15 -19 50 -21 58 -4 88 11 88 43 0 28 -26 45
-69 45 -17 0 -31 5 -31 10 0 6 23 10 50 10 36 0 50 4 50 14 0 29 -81 36 -118
10z"/>
<path d="M2026 2609 c-19 -15 -26 -30 -26 -55 0 -49 29 -74 85 -74 54 0 85 25
85 70 0 69 -87 104 -144 59z m99 -54 c0 -28 -2 -30 -40 -30 -30 0 -41 4 -43
18 -7 36 6 48 45 45 35 -3 38 -6 38 -33z"/>
<path d="M2200 2555 c0 -58 3 -75 14 -75 8 0 16 10 18 23 2 18 10 23 41 25 29
3 37 7 37 23 0 16 -7 19 -41 19 -24 0 -38 4 -34 10 3 6 28 10 56 10 42 0 49 3
49 20 0 18 -7 20 -70 20 l-70 0 0 -75z"/>
<path d="M2360 2610 c0 -15 7 -20 25 -20 24 0 25 -3 25 -55 0 -48 2 -55 20
-55 18 0 20 7 20 55 0 54 0 55 30 55 23 0 30 4 30 20 0 18 -7 20 -75 20 -68 0
-75 -2 -75 -20z"/>
<path d="M2530 2623 c0 -4 10 -37 22 -75 25 -78 46 -86 63 -26 15 53 21 54 35
3 7 -25 18 -45 26 -45 11 0 36 53 59 128 6 19 4 23 -11 20 -11 -2 -21 -17 -27
-38 -14 -55 -25 -57 -38 -6 -14 56 -33 59 -49 9 -19 -57 -26 -59 -39 -9 -7 29
-17 46 -26 46 -8 0 -15 -3 -15 -7z"/>
<path d="M2770 2564 c-16 -37 -30 -71 -30 -75 0 -15 28 -10 34 6 3 10 19 15
45 15 25 0 41 -5 45 -15 5 -15 36 -22 36 -8 0 3 -14 37 -31 75 -42 90 -59 90
-99 2z m64 0 c9 -23 8 -24 -14 -24 -11 0 -20 2 -20 4 0 12 13 36 20 36 4 0 11
-7 14 -16z"/>
<path d="M2937 2623 c-4 -3 -7 -37 -7 -75 0 -54 3 -68 15 -68 8 0 15 9 15 20
0 14 7 20 23 20 13 0 32 -9 42 -20 20 -22 50 -27 42 -7 -3 6 -8 20 -12 30 -4
10 -3 17 4 17 20 0 13 68 -8 80 -22 11 -104 14 -114 3z m98 -48 c0 -5 -17 -11
-37 -13 -30 -3 -38 0 -38 13 0 13 8 16 38 13 20 -2 37 -7 37 -13z"/>
<path d="M3110 2555 l0 -75 65 0 c58 0 65 2 65 20 0 17 -7 20 -52 22 -51 1
-51 2 -10 5 34 3 42 8 42 24 0 16 -7 19 -40 19 -22 0 -40 5 -40 10 0 6 23 10
50 10 43 0 50 3 50 20 0 18 -7 20 -65 20 l-65 0 0 -75z"/>
<path d="M3340 2610 c-11 -11 -20 -24 -20 -28 0 -23 32 -46 71 -52 l44 -7 -57
-2 c-42 -1 -58 -5 -58 -15 0 -18 22 -26 69 -26 40 0 81 23 81 45 0 21 -41 45
-77 45 -18 0 -33 5 -33 10 0 6 23 10 50 10 36 0 50 4 50 14 0 32 -90 36 -120
6z"/>
<path d="M3522 2614 c-12 -11 -25 -33 -28 -51 -5 -26 -1 -37 19 -57 15 -14 36
-26 49 -26 13 0 29 -9 36 -20 18 -29 44 -26 37 3 -4 15 -1 28 9 36 20 16 21
80 3 105 -20 27 -96 33 -125 10z m98 -39 c6 -8 9 -23 5 -35 -6 -18 -13 -21
-48 -18 -43 3 -56 20 -43 54 7 19 70 18 86 -1z"/>
<path d="M3690 2576 c0 -70 22 -96 78 -96 54 0 76 27 77 93 0 41 -4 52 -17 55
-14 3 -17 -6 -20 -50 l-3 -53 -37 -3 -37 -3 -3 53 c-2 41 -7 54 -20 56 -15 3
-18 -5 -18 -52z"/>
<path d="M3894 2558 c-30 -63 -32 -73 -18 -77 10 -1 21 4 26 13 12 22 88 23
88 1 0 -9 9 -15 21 -15 11 0 19 4 17 8 -1 5 -16 39 -33 75 -40 89 -56 88 -101
-5z m66 2 c9 -18 8 -20 -15 -20 -23 0 -24 2 -15 20 6 11 13 20 15 20 2 0 9 -9
15 -20z"/>
<path d="M4054 2616 c-3 -7 -4 -40 -2 -72 l3 -59 63 0 c73 0 92 15 92 71 0 46
-38 74 -102 74 -32 0 -50 -5 -54 -14z m111 -66 c0 -33 -2 -35 -37 -38 l-38 -3
0 41 0 41 38 -3 c35 -3 37 -5 37 -38z"/>
<path d="M996 2460 c-60 -64 -61 -91 -5 -154 40 -45 69 -59 69 -33 0 7 -14 26
-31 43 -59 55 -58 84 2 132 29 23 37 46 20 56 -5 3 -29 -17 -55 -44z"/>
<path d="M1825 2290 c-4 -6 -1 -17 5 -25 11 -13 170 -15 1179 -15 657 0 1172
4 1180 9 8 5 11 16 8 25 -6 15 -114 16 -1186 16 -809 0 -1182 -3 -1186 -10z"/>
</g>
</svg>
